<svg xmlns="http://www.w3.org/2000/svg" width="512" height="512" style="" viewBox="0 0 512 512" data-svgdocument="" id="_OqTjnup6ST5Tz-gxZtGnv" class="fl-svgdocument" x="0" y="0" xmlns:xlink="http://www.w3.org/1999/xlink"><defs id="_3a9qfGAwOAmJ01DTnKJYT" transform="matrix(0.8124998319780201, 0, 0, 0.8124998319780201, 48.00003747713869, 48.00002419406053)"/><g id="_7d5qosZVw2F3bLpWtypgT" transform="matrix(0.8124999288355594, 0, 0, 0.8124999288355594, 55.051581711561056, 48.00001267204736)"><path id="_HJGi-cJjzp9_pzIL-3sJH" d="M236,132.5c0.6,0.1,1.2,0.1,1.8,0.1c0,0,0.1,0,0.1,0c1.5,0,2.9-0.9,3.5-2.3l14.5-32.8c0.6-1.3,0.4-2.8-0.5-4   c-0.1-0.1-0.2-0.3-0.3-0.4l4-8.2c13-4.7,12.2-21.8,12.2-22.5c0-0.8-0.4-1.6-0.9-2.3c-0.9-1.1-22.6-26.2-79.4-26.2   c-3,0-6.2,0.1-9.3,0.2c-66.3,3.1-76.4,22-77.7,30c-1.4,9.2,6.3,15.1,6.6,15.3c0.2,0.2,0.5,0.3,0.7,0.4c1.5,0.7,2.9,1.2,4.4,1.5   l7.1,16.8c-0.9,5.6-0.2,11.5,2,16.1c1.9,4,4.8,6.9,8.4,8.5l46.7,110.7c0.6,1.4,1.9,2.3,3.4,2.4c0,0,0.1,0,0.1,0   c1.5,0,2.8-0.8,3.5-2.2l18.3-37.8c1-0.7,2-1.4,3-2.2c4.6-3.7,7-8.2,7.3-13.4c0.1-1.7-0.1-3.3-0.4-4.9L236,132.5z M189.3,154.3   c0.4-0.2,0.8-0.4,1.1-0.7c0.9-0.8,1.4-2.1,1.2-3.3c-0.3-2.2-0.2-4.9,0.1-6.2c2.2,0.3,6.7,1.5,8,4c1,1.9-0.1,4.6-1.2,6.6   c-0.1,0.3-0.3,0.5-0.5,0.8c-0.7,1.2-1.4,2.3-2.1,3.3c-0.8,1.2-1.6,2.3-2.5,3.3c-5,6.1-10.3,9.3-13.7,9.3c-1.2,0-1.7-0.5-1.9-0.6   c-0.2-0.1-0.3-0.3-0.4-0.4c-1.6-1.6-2.1-3.4-1.8-4.4c0.5-1.5,2.8-1.9,3.7-2c1.6-0.2,2.9-1.3,3.3-2.8c0.2-0.8,0.2-1.6-0.1-2.4   c-0.3-0.7-0.7-1.3-1.3-1.7c-0.5-0.4-1-0.8-1.5-1.1c-4.4-3.4-8.5-7.1-10.3-9.2c2.2-2,4.5-3.9,6-4.9c2.9,3.8,8.5,10.6,9.3,11.6   c0.2,0.2,0.3,0.4,0.5,0.5C186.5,154.6,188,154.9,189.3,154.3z M175.2,178.1C175.2,178,175.2,178,175.2,178.1   c1.4,0.6,2.9,0.9,4.6,0.9c0,0,0,0,0,0c6.7,0,14.6-5.4,21.1-13.9c1.2,1.3,4.5,5.2,6.1,9.7c0.6,1.7,1,3.5,0.9,5.3   c-0.2,3-1.6,5.5-4.4,7.8c-1.4,1.1-2.8,2.1-4.1,2.9c-2.9,1.7-5.6,2.6-8,2.6c0,0,0,0,0,0c-5.1,0-9.5-3.9-13.4-7.9   C175.9,183.5,175.1,181.1,175.2,178.1z M205.8,159.2c-0.2-0.2-0.5-0.4-0.7-0.6c0,0,0,0,0,0c0.1-0.1,0.1-0.2,0.2-0.3   c3-5.3,3.4-10,1.3-14c-3.5-6.6-12.7-7.9-14.6-8.1c-2.2-0.4-4.3,0.3-5.8,2c-0.6,0.7-1.1,1.6-1.5,2.5c-1.9-2.4-3.6-4.5-4.1-5.3   c-0.9-1.4-2.4-2.2-4.1-2.2c-4.1,0-10.6,5.9-14.1,9.5c-0.9,1-1.4,2.2-1.3,3.6c0.1,1.1,0.3,4.1,10.4,12.5c-1.5,1.2-2.5,2.8-3.1,4.6   c-0.8,2.4-0.6,5,0.5,7.5c-0.7,2.2-1.2,4.5-1.3,6.7c-0.2,5.2,1.4,9.7,4.8,13.1c4.9,4.9,10.8,10.2,18.9,10.2h0c1,0,2.1-0.1,3.2-0.3   l-10.7,22.1l-41-97.3c1.4,0.2,2.8,0.4,4.2,0.4c0,0,0,0,0,0c8,0,14.1-4.1,18.6-12.6c2.2-0.1,5.3-1,8-16c1.2,0.4,2.4,0.7,3.6,0.7   c5.3,0,9.7-4.2,11-10.4c0.7-3.2-0.2-6.4-2.5-9.3c-2.4-3-6.2-5.4-11-7.2c0,0,0,0,0.1,0c11.2,0,18.7-1.7,24.7-3.1   c5.7-1.3,9.8-2.1,14-1.2c5.1,1.1,11.3,5.1,17.2,9c6.5,4.2,13.2,8.6,19.6,9.8l-1.4,2.8c-3.2-1.5-8.3-3.3-13.3-3.3   c-4,0-7.5,1.2-10.2,3.5c-0.6,0.5-1.2,1.1-1.8,1.7c-2.4-1.1-5.4-1.7-8.7-1.7c-6.7,0-14.6,2.2-22,6.2c-5.4,2.9-8.3,6.6-8.6,11.1   c-0.6,7.5,6.4,13.5,7.9,14.7c1.2,1.1,2.6,1.7,4.2,1.7c1.6,0,3-0.6,4.3-1.6c0.3,3.1,0.6,5.8,0.6,6.7c0,1.7,1,3.9,3.8,4.8   c1,0.3,2.3,0.5,3.9,0.5c4.8,0,11.3-1.4,11.6-1.5c1.3-0.3,2.4-1.1,3.1-2.3c0.2-0.3,0.5-0.9,0.6-2c1.4,1.2,3,2.3,4.6,3.2l-17.5,36   C208.7,162,206.1,159.4,205.8,159.2z M111.5,65.4c3.1-19.8,63.5-23.2,70.4-23.5c3-0.1,6-0.2,9-0.2c46.8,0,68.1,18.2,72.6,22.5   c-0.1,1.5-0.3,4-1.1,6.5c-0.7,2-1.7,4-3.4,5.5c-1,0.9-2.2,1.6-3.6,1.9c-0.5,0.1-1.1,0.2-1.7,0.2c0,0,0,0-0.1,0   c-5.1,0-12.1-4.6-18.9-9c-2.3-1.5-4.7-3.1-7.1-4.5c-4.2-2.5-8.5-4.6-12.7-5.5c-1.8-0.4-3.6-0.6-5.5-0.6c-2.1,0-4.2,0.3-6.3,0.6   c-1.8,0.3-3.6,0.7-5.6,1.2c-6,1.4-12.7,2.9-23,2.9c-6.1,0-12.6-0.5-19.8-1.7c-0.8-0.1-1.6-0.2-2.4-0.2c-5.9,0-10.9,3.4-15.7,6.6   c-4.9,3.3-9.5,6.4-15,6.4c-0.2,0-0.4,0-0.6,0c-1.5-0.1-3-0.3-4.5-0.8c-0.6-0.2-1.1-0.4-1.7-0.6c-0.6-0.5-1.9-1.8-2.7-3.5   C111.6,68.4,111.3,67,111.5,65.4z M222.4,99.3c0.7,2.3,0.2,4-0.4,4.9c-0.6,0.8-1.6,1-2.8,0.7c-0.6-0.1-1.2-0.3-1.8-0.7   c-0.6-0.3-1.2-0.4-1.9-0.4c-0.9,0-1.7,0.4-2.4,1c-1.2,1.1-1.6,2.7-1.1,4.2c2.1,5.8,3.9,12,4.3,15.1c-2.4,0.4-5.6,0.9-7.7,0.9   c-0.4-4.8-1.4-13.6-1.6-14.7c-0.2-1.7-1.5-3.1-3.2-3.3c-1.7-0.3-3.4,0.6-4.1,2.1c-0.9,2-2.4,4.2-3.5,5.2c-1.7-1.5-4.8-4.8-4.6-7.7   c0.2-2.1,2.6-3.8,4.6-4.9c6.3-3.4,13-5.3,18.4-5.3c1.4,0,2.7,0.1,3.8,0.4c1.6,0.4,2.8,1,3.4,1.8C222.2,98.8,222.3,99,222.4,99.3z    M228.2,108.8c2.3-3,2.9-7.3,1.6-11.6c-0.2-0.6-0.4-1.1-0.6-1.7c0.4-0.4,0.7-0.7,1.1-1c1.3-1.1,3-1.6,5.2-1.6   c3.6,0,7.4,1.4,9.9,2.6c1.1,0.5,1.9,1,2.4,1.2c0,0,0,0,0,0l-12.3,27.9c-1.2-0.3-2.3-0.8-3.5-1.5c-2.3-1.4-4.6-3.4-7.2-6   c-1.2-1.2-2-2.8-2.3-4.6C224.8,111.9,226.7,110.7,228.2,108.8z M166.9,89.7c-0.2,1.2-0.4,2.4-0.6,3.6c-1.2-1.9-2.7-3.6-4.3-5.1   c0.5-1.5,0-3.2-1.3-4.2c-1.4-1-3.2-1.1-4.6,0c0,0-0.1,0-0.1,0.1c-3.4-1.9-6.3-2.8-6.5-2.9c0,0,0,0-0.1,0c0-1.2,0.2-2.3,0.7-3.1   c1.1-1.8,4.1-2.2,6.5-2.2c11.7,0,20.1,3.8,23,7.3c0.8,1,1.2,2,1,2.8c-0.6,2.8-2.2,4.3-3.5,4.3c-1,0-2.2-0.8-3.2-2.3   c-0.9-1.3-2.5-1.9-4.1-1.5C168.2,86.9,167.1,88.2,166.9,89.7z M141.1,74.6c1.5-1,2.9-2,4.2-2.8c-0.6,0.6-1.2,1.3-1.7,2   c-1.5,2.3-2,4.9-1.9,7.4c-4.9,0.6-11.1,2.3-14.9,6.8l-2.5-5.9C131,81.4,136.3,77.8,141.1,74.6z M130.8,97.5c0.2-1,0.5-2,0.9-2.9   c1.6-4,7.3-5.3,11.4-5.8c1.8-0.2,3.2-0.2,3.8-0.2c0.1,0,0.1,0,0.2,0c0.2,0,0.3,0,0.5,0c0.7,0.3,2.4,0.9,4.3,1.9   c1.3,0.7,2.7,1.6,4.1,2.6c1.1,0.9,2.1,1.8,3,2.9c0.6,0.7,1,1.5,1.4,2.3c0.8,1.8,1,3.7,0.6,5.8c-0.2,0.9-0.5,1.8-0.9,2.8   c-0.1,0.3-0.3,0.6-0.4,0.8c-0.6,1.3-1.2,2.5-1.9,3.5c-3.8,6.1-7.7,7-10.9,7c0,0,0,0,0,0c-2.5,0-5.2-0.6-7.9-1.4   c-0.6-0.2-1.2-0.4-1.8-0.6c-1.4-0.4-2.6-1.2-3.6-2.3c-0.7-0.8-1.3-1.7-1.8-2.8c-0.7-1.4-1.1-3-1.3-4.7   C129.9,103.6,130.1,100.5,130.8,97.5z" stroke="none" fill="#000000" transform="matrix(0.7746202349662781, 0, 0, 0.7746202349662781, 102.42221069335938, 61.639976501464844)"/><path id="_ZvMhmXRgwVznQW90-YBKR" d="M295.2,131.2c-0.3-2.1-2.2-3.6-4.3-3.4l-30.7,3.7c-2.1,0.3-3.6,2.2-3.4,4.3c0.2,2,1.9,3.4,3.8,3.4c0.2,0,0.3,0,0.5,0   l30.7-3.7C294,135.3,295.5,133.3,295.2,131.2z" stroke="none" fill="#000000" transform="matrix(0.7746202349662781, 0, 0, 0.7746202349662781, 102.84661102294922, 61.73128890991211)"/><path id="_qtGGvj-njPr0bSwDuk_7y" d="M243.3,183.5c-1.5-1.5-3.9-1.5-5.4-0.1c-1.5,1.5-1.5,3.9-0.1,5.4l16.3,16.7c0.8,0.8,1.8,1.2,2.8,1.2c1,0,1.9-0.4,2.7-1.1   c1.5-1.5,1.5-3.9,0.1-5.4L243.3,183.5z" stroke="none" fill="#000000" transform="matrix(0.7746202349662781, 0, 0, 0.7746202349662781, 102.4747543334961, 61.66927719116211)"/><path id="_2Vouf1C_3o5FTP__Qquyo" d="M226.9,207.7c-1.1-1.8-3.5-2.4-5.3-1.2c-1.8,1.1-2.4,3.5-1.2,5.3l13.9,22.4c0.7,1.2,2,1.8,3.3,1.8c0.7,0,1.4-0.2,2-0.6   c1.8-1.1,2.4-3.5,1.2-5.3L226.9,207.7z" stroke="none" fill="#000000" transform="matrix(0.7746202349662781, 0, 0, 0.7746202349662781, 102.46428680419922, 61.27149963378906)"/><path id="_SjxHlevpdG8jCr7QvswnK" d="M271.3,168.6l-16.6-7c-1.9-0.8-4.2,0.1-5,2c-0.8,2,0.1,4.2,2,5l16.6,7c0.5,0.2,1,0.3,1.5,0.3c1.5,0,2.9-0.9,3.5-2.4   C274.2,171.7,273.3,169.4,271.3,168.6z" stroke="none" fill="#000000" transform="matrix(0.7746202349662781, 0, 0, 0.7746202349662781, 102.36195373535156, 61.711402893066406)"/><path id="_v5_I2nKYpDk2Ei7UUBRVf" d="M127.6,192.2L107.1,215c-1.4,1.6-1.3,4,0.3,5.4c0.7,0.7,1.7,1,2.6,1c1.1,0,2.1-0.4,2.9-1.3l20.5-22.8   c1.4-1.6,1.3-4-0.3-5.4C131.4,190.5,129,190.6,127.6,192.2z" stroke="none" fill="#000000" transform="matrix(0.7746202349662781, 0, 0, 0.7746202349662781, 102.58490753173828, 62.01179504394531)"/><path id="_3sogBi8LtobtHCccbzjrc" d="M105.1,149.9c2.1,0,3.8-1.7,3.8-3.8c0-2.1-1.7-3.9-3.8-3.9L81.8,142c0,0,0,0,0,0c-2.1,0-3.8,1.7-3.8,3.8   c0,2.1,1.7,3.9,3.8,3.9L105.1,149.9C105.1,149.9,105.1,149.9,105.1,149.9z" stroke="none" fill="#000000" transform="matrix(0.7746202349662781, 0, 0, 0.7746202349662781, 102.67786407470703, 61.56251525878906)"/><path id="_mgnNuZTfGwSzw85eaxF5w" d="M83.8,113.8l19.2,5.8c0.4,0.1,0.7,0.2,1.1,0.2c1.7,0,3.2-1.1,3.7-2.7c0.6-2-0.5-4.2-2.6-4.8L86,106.4   c-2-0.6-4.2,0.5-4.8,2.6C80.6,111,81.8,113.2,83.8,113.8z" stroke="none" fill="#000000" transform="matrix(0.7746202349662781, 0, 0, 0.7746202349662781, 102.64299011230469, 62.15346908569336)"/><path id="_kIfJwPj9bZSBqh2NtfRNW" d="M118.3,166.9c-0.8-2-3.1-2.9-5-2.1l-21.3,8.8c-2,0.8-2.9,3.1-2.1,5c0.6,1.5,2,2.4,3.6,2.4c0.5,0,1-0.1,1.5-0.3l21.3-8.8   C118.2,171.2,119.1,168.9,118.3,166.9z" stroke="none" fill="#000000" transform="matrix(0.7746202349662781, 0, 0, 0.7746202349662781, 102.98050689697266, 61.55531311035156)"/></g><path id="_Q7WxbQElNhpEgDn6YE1YF" fill="#000000" transform="matrix(1.3401997554672804, 0, 0, 1.3401997554672804, 249.1318852497376, 330.81175357218854)" text="Stanley's" text-anchor="middle" font-size="100" letter-spacing="0" side="left" offset="0.5" dx="0" dy="0" space="preserve" href="" font-family="Sacramento" font-scale="contain" x="0" y="0" data-fl-textpath="" d="M-66.3860546875-51.27L-66.3860546875-51.27Q-66.5260546875-50.59 -67.0160546875-50.2Q-67.5060546875-49.8 -68.0860546875-49.8L-68.0860546875-49.8Q-68.9660546875-49.8 -69.5060546875-50.37Q-70.0460546875-50.93 -70.0460546875-51.66L-70.0460546875-51.66Q-70.0460546875-52.39 -69.8960546875-53.1Q-69.7460546875-53.81 -69.7460546875-54.49L-69.7460546875-54.49Q-69.7460546875-58.06 -71.9460546875-60.89Q-74.1460546875-63.72 -78.1760546875-65.65Q-82.2060546875-67.58 -87.9660546875-68.6Q-93.72605468750001-69.63 -100.8060546875-69.63L-100.8060546875-69.63Q-106.22605468750001-69.63 -111.71605468749999-68.92Q-117.21605468749999-68.21 -122.2660546875-66.87Q-127.3160546875-65.53 -131.7160546875-63.5Q-136.1060546875-61.47 -139.3560546875-58.81Q-142.6060546875-56.15 -144.4560546875-52.91Q-146.3160546875-49.66 -146.3160546875-45.8L-146.3160546875-45.8Q-146.3160546875-42.82 -145.0160546875-40.55Q-143.7260546875-38.28 -141.4760546875-36.6Q-139.2360546875-34.91 -136.1860546875-33.72Q-133.12605468750002-32.52 -129.5660546875-31.71Q-125.99605468749999-30.91 -122.1460546875-30.4Q-118.2860546875-29.88 -114.3760546875-29.54L-114.3760546875-29.54L-106.8560546875-28.91Q-101.24605468749999-28.42 -96.8060546875-27.88Q-92.3560546875-27.34 -88.9860546875-26.51L-88.9860546875-26.51Q-83.3760546875-25.1 -80.6860546875-22.46Q-78.0060546875-19.82 -78.0060546875-15.43L-78.0060546875-15.43Q-78.0060546875-11.18 -80.3460546875-7.96Q-82.6860546875-4.74 -86.7460546875-2.54Q-90.7960546875-0.34 -96.21605468749999 0.78Q-101.6360546875 1.9 -107.8360546875 1.9L-107.8360546875 1.9Q-114.5760546875 1.9 -119.6760546875 1Q-124.7760546875 0.1 -128.2260546875-1Q-131.6660546875-2.1 -133.4760546875-3.03Q-135.2760546875-3.96 -135.4260546875-4.05L-135.4260546875-4.05Q-136.3060546875-4.54 -136.3060546875-5.62L-136.3060546875-5.62Q-136.3060546875-6.45 -135.7160546875-6.96Q-135.1360546875-7.47 -134.4460546875-7.47L-134.4460546875-7.47Q-133.9160546875-7.47 -133.4760546875-7.18L-133.4760546875-7.18Q-133.4260546875-7.18 -131.78605468749998-6.32Q-130.1560546875-5.47 -126.9060546875-4.44Q-123.6560546875-3.42 -118.8760546875-2.59Q-114.0860546875-1.76 -107.7360546875-1.76L-107.7360546875-1.76Q-101.43605468749999-1.76 -96.6060546875-2.78Q-91.7760546875-3.81 -88.4760546875-5.64Q-85.1760546875-7.47 -83.4960546875-9.94Q-81.8160546875-12.4 -81.8160546875-15.28L-81.8160546875-15.28Q-81.8160546875-16.99 -82.4260546875-18.24Q-83.0360546875-19.48 -84.1060546875-20.39Q-85.1760546875-21.29 -86.6660546875-21.92Q-88.1560546875-22.56 -89.9160546875-23L-89.9160546875-23Q-91.7760546875-23.49 -93.8960546875-23.83Q-96.0160546875-24.17 -98.2660546875-24.41Q-100.5160546875-24.66 -102.7860546875-24.85Q-105.0560546875-25.05 -107.24605468749999-25.24L-107.24605468749999-25.24L-114.7660546875-25.88Q-123.6560546875-26.61 -130.2760546875-28.15Q-136.8860546875-29.69 -141.2860546875-32.1Q-145.6760546875-34.52 -147.8760546875-37.89Q-150.0760546875-41.26 -150.0760546875-45.75L-150.0760546875-45.75Q-150.0760546875-50.34 -147.9960546875-54.17Q-145.9260546875-58.01 -142.3360546875-61.08Q-138.7460546875-64.16 -133.9360546875-66.43Q-129.12605468750002-68.7 -123.6560546875-70.21Q-118.18605468749999-71.73 -112.3260546875-72.49Q-106.46605468749999-73.24 -100.8060546875-73.24L-100.8060546875-73.24Q-93.72605468750001-73.24 -88.4760546875-72.39Q-83.2260546875-71.53 -79.4960546875-70.19Q-75.7560546875-68.85 -73.3660546875-67.14Q-70.9760546875-65.43 -69.5060546875-63.77L-69.5060546875-63.77Q-66.0360546875-59.72 -66.0360546875-54.54L-66.0360546875-54.54Q-66.0360546875-52.83 -66.3860546875-51.27ZM-24.141757812500003-48.88L-24.141757812500003-48.88Q-24.141757812500003-48.1 -24.681757812500003-47.63Q-25.2217578125-47.17 -26.001757812500003-47.17L-26.001757812500003-47.17L-50.7617578125-47.17L-50.7617578125-46.63Q-50.7617578125-43.65 -51.1917578125-40.28Q-51.6317578125-36.91 -52.3917578125-33.57Q-53.1517578125-30.22 -54.1017578125-27.05Q-55.0517578125-23.88 -56.0517578125-21.19Q-57.0517578125-18.51 -58.031757812500004-16.53Q-59.0117578125-14.55 -59.7917578125-13.57L-59.7917578125-13.57Q-59.1517578125-11.33 -58.2717578125-9.4Q-57.4017578125-7.47 -56.3017578125-6.03Q-55.2017578125-4.59 -53.9317578125-3.76Q-52.6617578125-2.93 -51.1917578125-2.93L-51.1917578125-2.93Q-49.4917578125-2.93 -47.8017578125-4.37Q-46.1217578125-5.81 -44.681757812499995-7.79Q-43.2417578125-9.77 -42.1417578125-11.79Q-41.041757812499995-13.82 -40.5517578125-15.04L-40.5517578125-15.04Q-40.061757812500005-16.21 -38.8417578125-16.21L-38.8417578125-16.21Q-38.0117578125-16.21 -37.5017578125-15.63Q-36.9917578125-15.04 -36.9917578125-14.36L-36.9917578125-14.36Q-36.9917578125-14.01 -37.1317578125-13.67L-37.1317578125-13.67Q-37.281757812500004-13.33 -37.8417578125-12.11Q-38.4017578125-10.89 -39.3017578125-9.28Q-40.2117578125-7.67 -41.4017578125-5.88Q-42.6017578125-4.1 -44.0917578125-2.64Q-45.5817578125-1.17 -47.291757812499995-0.2Q-49.0017578125 0.78 -50.9017578125 0.78L-50.9017578125 0.78Q-54.2717578125 0.78 -56.9617578125-1.42Q-59.6417578125-3.61 -61.5217578125-7.57Q-63.4017578125-11.52 -64.3817578125-16.94Q-65.3517578125-22.36 -65.3517578125-28.81L-65.3517578125-28.81Q-65.3517578125-30.42 -65.3117578125-32.59Q-65.2617578125-34.77 -65.1117578125-37.18Q-64.9617578125-39.6 -64.6717578125-42.16Q-64.3817578125-44.73 -63.8917578125-47.17L-63.8917578125-47.17L-81.4217578125-47.17Q-82.2017578125-47.17-82.7417578125-47.63Q-83.2717578125-48.1-83.2717578125-48.88L-83.2717578125-48.88Q-83.2717578125-49.66-82.7417578125-50.12Q-82.2017578125-50.59-81.4217578125-50.59L-81.4217578125-50.59L-63.0617578125-50.59Q-62.5717578125-52.34 -61.9117578125-53.81Q-61.2517578125-55.27 -60.4017578125-56.35Q-59.5417578125-57.42 -58.4917578125-58.03Q-57.4417578125-58.64 -56.1717578125-58.64L-56.1717578125-58.64Q-54.9517578125-58.64 -54.0517578125-58.03Q-53.1517578125-57.42 -52.5117578125-56.35Q-51.8817578125-55.27 -51.5117578125-53.81Q-51.1517578125-52.34 -50.9517578125-50.59L-50.9517578125-50.59L-26.001757812500003-50.59Q-25.2217578125-50.59 -24.681757812500003-50.12Q-24.141757812500003-49.66 -24.141757812500003-48.88ZM-60.9117578125-18.46L-60.9117578125-18.46Q-59.4517578125-21.68 -58.2517578125-25.42Q-57.0517578125-29.15 -56.2017578125-32.96Q-55.3417578125-36.77 -54.8817578125-40.43Q-54.4217578125-44.09 -54.4217578125-47.17L-54.4217578125-47.17L-60.1817578125-47.17Q-60.8617578125-44.14 -61.281757812500004-39.67Q-61.6917578125-35.21 -61.6917578125-28.81L-61.6917578125-28.81Q-61.6917578125-25.24 -61.5017578125-22.83Q-61.3017578125-20.41 -60.9117578125-18.46ZM-56.3717578125-54.98L-56.3717578125-54.98Q-56.8117578125-54.98 -57.6417578125-54.03Q-58.4717578125-53.08 -59.3017578125-50.59L-59.3017578125-50.59L-54.6117578125-50.59Q-54.8617578125-52.64 -55.321757812499996-53.81Q-55.781757812500004-54.98 -56.3717578125-54.98ZM-60.1317578125-14.89L-60.1317578125-14.94L-60.1317578125-14.89ZM-2.6119140624999986-13.62L-2.6119140624999986-13.62Q-2.8119140625000014-13.23 -3.421914062500001-11.99Q-4.0319140625-10.74 -4.981914062500003-9.13Q-5.931914062499999-7.52 -7.201914062500002-5.76Q-8.471914062499998-4 -10.0319140625-2.54Q-11.591914062499999-1.07 -13.401914062500001-0.12Q-15.2119140625 0.83 -17.2119140625 0.83L-17.2119140625 0.83Q-20.0419140625 0.83 -21.9719140625-0.98Q-23.9019140625-2.78 -24.7819140625-5.52L-24.7819140625-5.52Q-26.4419140625-2.73 -28.7319140625-1.1Q-31.0319140625 0.54 -33.3219140625 0.54L-33.3219140625 0.54Q-35.1319140625 0.54 -36.5919140625-0.12Q-38.0619140625-0.78 -39.0819140625-1.98Q-40.1119140625-3.17 -40.6719140625-4.79Q-41.2319140625-6.4 -41.2319140625-8.3L-41.2319140625-8.3Q-41.2319140625-12.11 -39.9419140625-15.01Q-38.6519140625-17.92 -36.6419140625-19.87Q-34.6419140625-21.83 -32.2219140625-22.8Q-29.8119140625-23.78 -27.5619140625-23.78L-27.5619140625-23.78Q-26.0519140625-23.78 -24.7819140625-23.36Q-23.5119140625-22.95 -22.6119140625-22.46Q-21.7019140625-21.97 -21.2119140625-21.56Q-20.7319140625-21.14 -20.6819140625-21.09L-20.6819140625-21.09Q-20.1419140625-20.46 -20.1419140625-19.78L-20.1419140625-19.78Q-20.1419140625-19.04 -20.6819140625-18.48Q-21.2119140625-17.92 -21.9519140625-17.92L-21.9519140625-17.92Q-22.7319140625-17.92 -23.2619140625-18.46L-23.2619140625-18.46Q-23.3619140625-18.55 -23.7019140625-18.82Q-24.0519140625-19.09 -24.6319140625-19.38Q-25.2219140625-19.68 -26.0219140625-19.9Q-26.831914062499997-20.12 -27.8519140625-20.12L-27.8519140625-20.12Q-29.3719140625-20.12 -31.081914062499997-19.43Q-32.7919140625-18.75 -34.2019140625-17.31Q-35.6219140625-15.87 -36.5719140625-13.7Q-37.5219140625-11.52 -37.5219140625-8.54L-37.5219140625-8.54Q-37.5219140625-7.62 -37.3319140625-6.67Q-37.1319140625-5.71 -36.6419140625-4.93Q-36.1619140625-4.15 -35.3319140625-3.66Q-34.5019140625-3.17 -33.2719140625-3.17L-33.2719140625-3.17Q-32.4019140625-3.17 -31.2519140625-3.76Q-30.1019140625-4.35 -29.0519140625-5.57Q-28.0019140625-6.79 -27.151914062499998-8.64Q-26.2919140625-10.5 -25.9519140625-13.04L-25.9519140625-13.04Q-25.8519140625-13.72 -25.3219140625-14.18Q-24.7819140625-14.65 -24.0519140625-14.65L-24.0519140625-14.65Q-23.3619140625-14.65 -22.8519140625-14.11Q-22.3419140625-13.57 -22.2919140625-12.89L-22.2919140625-12.89Q-22.2419140625-11.96 -22.0919140625-10.28Q-21.9519140625-8.59 -21.4319140625-6.93Q-20.9219140625-5.27 -19.9019140625-4.05Q-18.8719140625-2.83 -17.0619140625-2.83L-17.0619140625-2.83Q-15.8919140625-2.83 -14.741914062500001-3.47Q-13.6019140625-4.1 -12.5019140625-5.15Q-11.401914062500001-6.2 -10.401914062500001-7.54Q-9.401914062499998-8.89 -8.5719140625-10.25Q-7.741914062500001-11.62 -7.101914062500001-12.89Q-6.471914062499998-14.16 -6.0319140625-15.09L-6.0319140625-15.09Q-5.7819140625-15.63 -5.321914062499999-15.92Q-4.861914062499999-16.21 -4.321914062499999-16.21L-4.321914062499999-16.21Q-3.491914062500001-16.21 -2.981914062500003-15.6Q-2.4619140625-14.99 -2.4619140625-14.31L-2.4619140625-14.31Q-2.4619140625-13.96 -2.6119140624999986-13.62ZM 4.863085937499999-4.39L 4.863085937499999-4.39Q 5.6430859375-6.01  6.6630859375-7.93Q 7.693085937499999-9.86  8.8630859375-11.84Q 10.033085937500001-13.82  11.333085937500002-15.77Q 12.6230859375-17.72  14.043085937499999-19.48L 14.043085937499999-19.48Q 15.4530859375-21.19  16.8930859375-21.95Q 18.3330859375-22.71  19.6030859375-22.71L 19.6030859375-22.71Q 22.1430859375-22.71  23.3630859375-20.85Q 24.5830859375-18.99  24.5830859375-16.26L 24.5830859375-16.26Q 24.5830859375-15.63  24.5130859375-14.72Q 24.4430859375-13.82  24.363085937500003-12.79Q 24.293085937500003-11.77  24.223085937500002-10.72Q 24.1430859375-9.67  24.1430859375-8.74L 24.1430859375-8.74Q 24.1430859375-7.57  24.2630859375-6.49Q 24.393085937499997-5.42  24.7330859375-4.61Q 25.073085937499997-3.81  25.7030859375-3.34Q 26.3430859375-2.88  27.3730859375-2.88L 27.3730859375-2.88Q 29.223085937500002-2.88  30.9830859375-4.32Q 32.7430859375-5.76  34.2330859375-7.74Q 35.7130859375-9.72  36.8130859375-11.77Q 37.9130859375-13.82  38.4530859375-15.09L 38.4530859375-15.09Q 38.6930859375-15.63  39.1630859375-15.92Q 39.6230859375-16.21  40.1630859375-16.21L 40.1630859375-16.21Q 40.9930859375-16.21  41.5030859375-15.6Q 42.0130859375-14.99  42.0130859375-14.31L 42.0130859375-14.31Q 42.0130859375-13.96  41.8730859375-13.62L 41.8730859375-13.62Q 41.6730859375-13.23  41.0930859375-12.01Q 40.5030859375-10.79  39.5530859375-9.2Q 38.6030859375-7.62  37.3330859375-5.83Q 36.0630859375-4.05  34.5230859375-2.59Q 32.9830859375-1.12  31.2030859375-0.15Q 29.423085937499998 0.83  27.463085937499997 0.83L 27.463085937499997 0.83Q 25.2730859375 0.83  23.9030859375-0.02Q 22.5330859375-0.88  21.7530859375-2.27Q 20.9730859375-3.66  20.7030859375-5.35Q 20.4330859375-7.03  20.4330859375-8.74L 20.4330859375-8.74Q 20.4330859375-9.47  20.5030859375-10.4Q 20.5830859375-11.33  20.7030859375-12.35Q 20.8230859375-13.38  20.9030859375-14.4Q 20.9730859375-15.43  20.9730859375-16.36L 20.9730859375-16.36Q 20.9730859375-17.92  20.4830859375-18.48Q 19.9930859375-19.04  19.6030859375-19.04L 19.6030859375-19.04Q 18.8230859375-19.04  17.8230859375-18.14Q 16.8230859375-17.24  15.723085937499999-15.77Q 14.6230859375-14.31  13.473085937499999-12.48Q 12.333085937500002-10.64  11.333085937500002-8.84Q 10.3230859375-7.03  9.473085937499999-5.4Q 8.6230859375-3.76  8.1330859375-2.69L 8.1330859375-2.69Q 7.1530859375-0.63  6.1730859375 0.07Q 5.203085937499999 0.78  4.1730859375 0.78L 4.1730859375 0.78Q 2.7630859374999996 0.78  1.9030859375000002-0.07Q 1.0530859375000006-0.93  1.0530859375000006-2.49L 1.0530859375000006-2.49Q 1.0530859375000006-2.83  1.1430859375000004-3.83Q 1.2430859375-4.83  1.3930859375000004-6.23Q 1.5430859375000008-7.62  1.6830859374999996-9.23Q 1.8330859375-10.84  1.9730859375000005-12.43Q 2.123085937500001-14.01  2.2230859375000005-15.38Q 2.3230859375-16.75  2.3230859375-17.68L 2.3230859375-17.68Q 2.3230859375-18.9  2.2230859375000005-20.02Q 2.123085937500001-21.14  1.8330859375-21.39L 1.8330859375-21.39Q 1.3930859375000004-21.24  0.27308593749999943-19.56Q-0.8569140624999996-17.87 -2.6169140625000002-13.62L-2.6169140625000002-13.62Q-2.8569140624999996-13.09 -3.3469140625-12.79Q-3.8369140625-12.5 -4.366914062499999-12.5L-4.366914062499999-12.5Q-5.196914062499999-12.5 -5.6869140625-13.06Q-6.1769140625-13.62 -6.1769140625-14.36L-6.1769140625-14.36Q-6.1769140625-14.7 -6.0269140624999995-15.09L-6.0269140624999995-15.09Q-3.8369140625-20.31 -1.9069140625000003-22.78Q 0.02308593750000032-25.24  1.9330859374999996-25.24L 1.9330859374999996-25.24Q 3.0530859375000006-25.24  3.8330859375-24.68Q 4.613085937499999-24.12  5.0830859375-23.19Q 5.543085937500001-22.27  5.7630859375-21.14Q 5.9830859375-20.02  5.9830859375-18.85L 5.9830859375-18.85Q 5.9830859375-17.97  5.863085937499999-16.11Q 5.7330859375-14.26  5.543085937500001-12.13Q 5.3430859375-10.01  5.1730859375-7.91Q 5.0030859375-5.81  4.863085937499999-4.39ZM 66.2855078125-13.53L 66.2855078125-13.53Q 65.7455078125-12.4  64.9455078125-10.86Q 64.1355078125-9.33  63.1055078125-7.67Q 62.0855078125-6.01  60.8155078125-4.37Q 59.5455078125-2.73  58.0555078125-1.44Q 56.5655078125-0.15  54.885507812499995 0.66Q 53.1955078125 1.46  51.2955078125 1.46L 51.2955078125 1.46Q 48.3655078125 1.46  46.2655078125-0.34Q 44.165507812499996-2.15  42.6955078125-5.08Q 41.2355078125-8.01  40.3355078125-11.74Q 39.4255078125-15.48  38.9355078125-19.36Q 38.4555078125-23.24  38.2855078125-26.9Q 38.1055078125-30.57  38.1055078125-33.4L 38.1055078125-33.4Q 38.1055078125-37.5  38.3755078125-41.89Q 38.6455078125-46.29  39.2355078125-50.49Q 39.8155078125-54.69  40.7255078125-58.45Q 41.625507812500004-62.21  42.875507812500004-65.04Q 44.1155078125-67.87  45.7255078125-69.53Q 47.3355078125-71.19  49.3855078125-71.19L 49.3855078125-71.19Q 51.0055078125-71.19  52.2955078125-70.43Q 53.5855078125-69.68  54.4655078125-67.97Q 55.3455078125-66.26  55.8355078125-63.53Q 56.3255078125-60.79  56.3255078125-56.84L 56.3255078125-56.84Q 56.3255078125-51.95  55.2955078125-46.75Q 54.275507812499995-41.55  52.5155078125-36.28Q 50.7555078125-31.01  48.3655078125-25.76Q 45.9755078125-20.51  43.2355078125-15.53L 43.2355078125-15.53Q 44.4555078125-9.33  46.5055078125-5.79Q 48.5555078125-2.25  51.4355078125-2.25L 51.4355078125-2.25Q 53.3955078125-2.25  55.1955078125-3.78Q 57.0055078125-5.32  58.525507812499995-7.42Q 60.0355078125-9.52  61.1855078125-11.69Q 62.3255078125-13.87  62.9655078125-15.19L 62.9655078125-15.19Q 63.2055078125-15.67  63.6455078125-15.94Q 64.0855078125-16.21  64.6255078125-16.21L 64.6255078125-16.21Q 65.4555078125-16.21  65.9655078125-15.63Q 66.4755078125-15.04  66.4755078125-14.31L 66.4755078125-14.31Q 66.4755078125-14.01  66.2855078125-13.53ZM 41.8255078125-33.15L 41.8255078125-33.15Q 41.8255078125-30.03  41.9655078125-27.15Q 42.1155078125-24.27  42.3555078125-21.63L 42.3555078125-21.63Q 44.4055078125-25.59  46.2655078125-30.05Q 48.1155078125-34.52  49.5355078125-39.09Q 50.9555078125-43.65  51.8055078125-48.17Q 52.665507812499996-52.69  52.665507812499996-56.79L 52.665507812499996-56.79Q 52.665507812499996-62.55  51.7355078125-65.04Q 50.8055078125-67.53  49.2455078125-67.53L 49.2455078125-67.53Q 48.2155078125-67.53  47.2655078125-66.11Q 46.3155078125-64.7  45.4855078125-62.26Q 44.6555078125-59.81  43.9655078125-56.49Q 43.2855078125-53.17  42.8255078125-49.37Q 42.3555078125-45.56  42.0855078125-41.41Q 41.8255078125-37.26  41.8255078125-33.15ZM 68.8183984375-5.37L 68.8183984375-5.37Q 69.8483984375-3.96  71.4583984375-3.1Q 73.06839843750001-2.25  75.4183984375-2.25L 75.4183984375-2.25Q 77.8083984375-2.25  79.7583984375-3.39Q 81.7183984375-4.54  83.3283984375-6.4Q 84.9383984375-8.25  86.2083984375-10.55Q 87.4783984375-12.84  88.4983984375-15.14L 88.4983984375-15.14Q 88.7483984375-15.67  89.1883984375-15.94Q 89.6283984375-16.21  90.1583984375-16.21L 90.1583984375-16.21Q 90.9883984375-16.21  91.5083984375-15.63Q 92.0183984375-15.04  92.0183984375-14.36L 92.0183984375-14.36Q 92.0183984375-14.11  91.9683984375-13.94Q 91.9183984375-13.77  91.81839843750001-13.57L 91.81839843750001-13.57Q 88.4483984375-6.15  84.4683984375-2.39Q 80.4883984375 1.37  75.4683984375 1.46L 75.4683984375 1.46Q 72.2383984375 1.46  69.89839843749999 0.22Q 67.5583984375-1.03  66.0383984375-3Q 64.5283984375-4.98  63.7983984375-7.47Q 63.0583984375-9.96  63.0583984375-12.45L 63.0583984375-12.45Q 63.0583984375-14.94  63.6683984375-17.04Q 64.2783984375-19.14  65.4283984375-20.7Q 66.5783984375-22.27  68.1683984375-23.14Q 69.7483984375-24.02  71.6583984375-24.02L 71.6583984375-24.02Q 72.7783984375-24.02  73.8783984375-23.56Q 74.9783984375-23.1  75.8583984375-22.24Q 76.7383984375-21.39  77.2683984375-20.17Q 77.8083984375-18.95  77.8083984375-17.38L 77.8083984375-17.38Q 77.8083984375-15.38  77.1283984375-13.62Q 76.4383984375-11.87  75.2483984375-10.35Q 74.0483984375-8.84  72.3883984375-7.57Q 70.7283984375-6.3  68.8183984375-5.37ZM 67.3583984375-8.54L 67.3583984375-8.54Q 68.8683984375-9.18  70.1183984375-10.16Q 71.3583984375-11.13  72.2383984375-12.3Q 73.1183984375-13.48  73.6083984375-14.77Q 74.0983984375-16.06  74.0983984375-17.38L 74.0983984375-17.38Q 74.0983984375-18.85  73.3683984375-19.6Q 72.6283984375-20.36  71.6583984375-20.36L 71.6583984375-20.36Q 70.3383984375-20.36  69.4083984375-19.63Q 68.4783984375-18.9  67.8983984375-17.72Q 67.3083984375-16.55  67.0383984375-15.11Q 66.7683984375-13.67  66.7683984375-12.26L 66.7683984375-12.26Q 66.7683984375-11.38  66.9383984375-10.4Q 67.1183984375-9.42  67.3583984375-8.54ZM 106.6655078125 0.68L 106.6655078125 0.68Q 108.3755078125-1.03  110.1355078125-2.81Q 111.8855078125-4.59  113.5455078125-6.54Q 115.2055078125-8.5  116.6455078125-10.62Q 118.0955078125-12.74  119.2155078125-15.14L 119.2155078125-15.14Q 119.4555078125-15.67  119.8955078125-15.94Q 120.3355078125-16.21  120.87550781249999-16.21L 120.87550781249999-16.21Q 121.7055078125-16.21  122.2155078125-15.63Q 122.7255078125-15.04  122.7255078125-14.31L 122.7255078125-14.31Q 122.7255078125-13.92  122.5855078125-13.57L 122.5855078125-13.57Q 121.0655078125-10.4  119.1155078125-7.76Q 117.1655078125-5.13  115.0155078125-2.76Q 112.8655078125-0.39  110.6655078125 1.83Q 108.4755078125 4.05  106.4655078125 6.3L 106.4655078125 6.3Q 106.2755078125 9.67  106.4655078125 13.06Q 106.6655078125 16.46  106.6655078125 20.26L 106.6655078125 20.26Q 106.6655078125 23.39  106.4655078125 26.51Q 106.2755078125 29.64  105.8355078125 32.5Q 105.3955078125 35.35  104.6355078125 37.84Q 103.8855078125 40.33  102.7055078125 42.16Q 101.5355078125 43.99  99.9755078125 45.04Q 98.4155078125 46.09  96.3155078125 46.09L 96.3155078125 46.09Q 92.8455078125 46.09  90.9955078125 43.7Q 89.1355078125 41.31  89.1355078125 37.01L 89.1355078125 37.01Q 89.1355078125 34.67  89.6455078125 31.98Q 90.1655078125 29.3  91.0855078125 26.44Q 92.0155078125 23.58  93.3155078125 20.65Q 94.6055078125 17.72  96.1155078125 14.94Q 97.6355078125 12.16  99.3455078125 9.64Q 101.0455078125 7.13  102.8055078125 5.08L 102.8055078125 5.08Q 102.9055078125 2.73  103.0255078125 0.22Q 103.1455078125-2.29  103.2955078125-4.44L 103.2955078125-4.44Q 102.0255078125-2.2  100.1455078125-0.83Q 98.2655078125 0.54  96.0255078125 0.54L 96.0255078125 0.54Q 92.3055078125 0.54  90.2055078125-1.95Q 88.1055078125-4.44  88.1055078125-8.79L 88.1055078125-8.79Q 88.1055078125-11.96  88.7255078125-14.58Q 89.3355078125-17.19  90.0355078125-19.07Q 90.7455078125-20.95  91.3355078125-21.95Q 91.9155078125-22.95  91.9155078125-22.9L 91.9155078125-22.9Q 92.4555078125-23.73  93.4355078125-23.73L 93.4355078125-23.73Q 94.2655078125-23.73  94.7755078125-23.17Q 95.2855078125-22.61  95.2855078125-21.88L 95.2855078125-21.88Q 95.2855078125-21.34  94.9955078125-20.9L 94.9955078125-20.9Q 95.0455078125-20.95  94.5355078125-20.09Q 94.0155078125-19.24  93.4055078125-17.63Q 92.7955078125-16.02  92.2855078125-13.77Q 91.7755078125-11.52  91.7755078125-8.84L 91.7755078125-8.84Q 91.7755078125-6.15  92.7455078125-4.64Q 93.7255078125-3.13  95.9255078125-3.13L 95.9255078125-3.13Q 98.7055078125-3.13  100.9555078125-7.25Q 103.1955078125-11.38  104.7655078125-19.24L 104.7655078125-19.24Q 104.85550781250001-19.87  105.3455078125-20.29Q 105.8355078125-20.7  106.5155078125-20.7L 106.5155078125-20.7Q 107.2955078125-20.7  107.8355078125-20.17Q 108.3755078125-19.63  108.3755078125-18.85L 108.3755078125-18.85Q 108.3755078125-18.7  108.1755078125-17.11Q 107.9855078125-15.53  107.7155078125-12.89Q 107.4455078125-10.25  107.1555078125-6.76Q 106.85550781250001-3.27  106.6655078125 0.68ZM 102.7555078125 11.04L 102.7555078125 11.04Q 100.5655078125 14.21  98.7255078125 17.72Q 96.8955078125 21.24  95.5855078125 24.71Q 94.2655078125 28.17  93.5255078125 31.35Q 92.7955078125 34.52  92.7955078125 37.01L 92.7955078125 37.01Q 92.7955078125 39.55  93.6255078125 40.99Q 94.4555078125 42.43  96.2655078125 42.43L 96.2655078125 42.43Q 97.8755078125 42.43  99.1255078125 40.84Q 100.3655078125 39.26  101.2255078125 36.33Q 102.0755078125 33.4  102.5155078125 29.22Q 102.9555078125 25.05  102.9555078125 19.87L 102.9555078125 19.87Q 102.9555078125 17.77  102.8855078125 15.63Q 102.8055078125 13.48  102.7555078125 11.04ZM 125.7583984375-66.55L 124.6383984375-57.23Q 124.5383984375-56.54  123.9983984375-56.08Q 123.4583984375-55.62  122.7783984375-55.62L 122.7783984375-55.62Q 122.0983984375-55.62  121.5283984375-56.15Q 120.9683984375-56.69  120.9683984375-57.52L 120.9683984375-57.52Q 120.9683984375-57.71  120.9983984375-57.93Q 121.0183984375-58.15  121.0683984375-58.5L 121.0683984375-58.5L 122.2883984375-68.65Q 122.3883984375-69.38  122.9283984375-69.82Q 123.4583984375-70.26  124.1483984375-70.26L 124.1483984375-70.26Q 124.9783984375-70.26  125.4683984375-69.7Q 125.9483984375-69.14  125.9483984375-68.41L 125.9483984375-68.41Q 125.9483984375-68.21  125.8783984375-67.55Q 125.8083984375-66.89  125.7583984375-66.55L 125.7583984375-66.55ZM 136.8454296875-18.07L 136.8454296875-18.07Q 136.5454296875-17.29  136.1354296875-16.31Q 135.7154296875-15.33  135.1854296875-14.26L 135.1854296875-14.26Q 134.7454296875-13.43  134.2754296875-12.96Q 133.8154296875-12.5  133.0854296875-12.5L 133.0854296875-12.5Q 132.2554296875-12.5  131.7654296875-13.01Q 131.2754296875-13.53  131.2754296875-14.21L 131.2754296875-14.21Q 131.2754296875-14.45  131.3254296875-14.62Q 131.3754296875-14.79  131.5654296875-15.19L 131.5654296875-15.19Q 132.8354296875-17.63  133.4454296875-19.46Q 134.0554296875-21.29  134.4454296875-23.29L 134.4454296875-23.29Q 134.1054296875-24.41  133.9554296875-25.2Q 133.8154296875-25.98  133.8154296875-26.81L 133.8154296875-26.81Q 133.8154296875-28.42  134.4954296875-29.42Q 135.1854296875-30.42  136.4054296875-30.42L 136.4054296875-30.42Q 137.5254296875-30.42  138.1854296875-29.44Q 138.8454296875-28.47  138.8454296875-27.05L 138.8454296875-27.05Q 138.8454296875-26.27  138.6954296875-25.49Q 138.5454296875-24.71  138.3054296875-23.54L 138.3054296875-23.54Q 139.4254296875-20.75  140.5554296875-18.6Q 141.6754296875-16.46  142.5554296875-14.67Q 143.4354296875-12.89  143.9954296875-11.33Q 144.5554296875-9.77  144.5554296875-8.2L 144.5554296875-8.2Q 144.5554296875-6.15  143.7254296875-4.3Q 142.8954296875-2.44  140.9954296875-1.17L 140.9954296875-1.17Q 141.2354296875-1.12  141.4754296875-1.12Q 141.7254296875-1.12  141.9654296875-1.12L 141.9654296875-1.12Q 144.7554296875-1.12  147.0954296875-2.39Q 149.4354296875-3.66  151.3154296875-5.69Q 153.1954296875-7.71  154.6654296875-10.18Q 156.1254296875-12.65  157.2054296875-15.09L 157.2054296875-15.09Q 157.6954296875-16.21  158.5654296875-16.21L 158.5654296875-16.21Q 159.39542968749998-16.21  159.8654296875-15.63Q 160.3254296875-15.04  160.3254296875-14.36L 160.3254296875-14.36Q 160.3254296875-13.96  160.1854296875-13.62L 160.1854296875-13.62Q 159.64542968749998-12.3  158.7854296875-10.62Q 157.9354296875-8.94  156.73542968750002-7.15Q 155.5454296875-5.37  153.9754296875-3.66Q 152.4154296875-1.95  150.48542968750002-0.61Q 148.5554296875 0.73  146.2654296875 1.54Q 143.9654296875 2.34  141.2354296875 2.34L 141.2354296875 2.34Q 137.9654296875 2.34  135.1554296875 1.2Q 132.3454296875 0.05  130.5954296875-2.59L 130.5954296875-2.59Q 130.2954296875-3.03  130.2954296875-3.52L 130.2954296875-3.52Q 130.2954296875-4.25  130.8554296875-4.81Q 131.4254296875-5.37  132.1554296875-5.37L 132.1554296875-5.37Q 132.9354296875-5.37  133.4754296875-4.83L 133.4754296875-4.83Q 133.5254296875-4.74  133.8154296875-4.52Q 134.1054296875-4.3  134.5254296875-4.03Q 134.9354296875-3.76  135.4954296875-3.56Q 136.0554296875-3.37  136.6454296875-3.37L 136.6454296875-3.37Q 137.8154296875-3.37  138.6254296875-3.86Q 139.4254296875-4.35  139.9154296875-5.05Q 140.4054296875-5.76  140.6254296875-6.57Q 140.8454296875-7.37  140.8454296875-7.96L 140.8454296875-7.96Q 140.8454296875-9.18  140.4554296875-10.4Q 140.0654296875-11.62  139.4554296875-12.84Q 138.8454296875-14.06  138.1354296875-15.36Q 137.4254296875-16.65  136.8454296875-18.07Z"/><path id="_I5za1GqR1gKZaEp5FKT2m" fill="#000000" transform="matrix(0.47260062354978044, 0, 0, 0.47260062354978044, 255.21404280570368, 385.81111551521275)" text="PIZZA" text-anchor="middle" font-size="100" letter-spacing="25" side="left" offset="0.5" dx="0" dy="0" space="preserve" href="" font-family="Corben" font-scale="contain" x="0" y="0" data-fl-textpath="" d="M-199.92390625-61.91Q-201.95390625-62.4 -204.00390625-62.82Q-206.05390625-63.23 -206.05390625-64.23Q-206.05390625-65.23 -205.39390625-65.99Q-204.73390625-66.75 -203.41390625-67.21Q-202.10390625-67.68 -200.75390625-67.97Q-199.41390625-68.26 -197.36390625-68.36L-197.36390625-68.36Q-194.48390625-68.55 -190.38390625-68.55L-190.38390625-68.55L-181.88390625-68.55Q-165.96390625-68.55 -158.49390625-66.8L-158.49390625-66.8Q-150.68390625-65.04 -147.12390625-61.62L-147.12390625-61.62Q-142.72390625-57.42 -142.72390625-50.78L-142.72390625-50.78Q-142.72390625-40.97 -148.63390625-36.13L-148.63390625-36.13Q-152.73390625-32.81 -156.78390625-31.71Q-160.84390625-30.62 -163.57390625-30.15Q-166.30390625-29.69 -169.97390625-29.39L-169.97390625-29.39Q-175.63390625-29 -183.79390625-29L-183.79390625-29L-186.86390625-29L-186.86390625-8.4Q-186.86390625-7.47 -184.83390624999998-6.86Q-182.81390625-6.25 -180.78390625-5.69Q-178.76390625-5.13 -178.76390625-4.39L-178.76390625-4.39Q-178.76390625-2.78 -179.54390625-1.83Q-180.32390625-0.88 -182.42390625000002-0.49L-182.42390625000002-0.49Q-185.01390625-0.05 -192.26390625-0.05Q-199.51390625-0.05 -201.07390625-0.24L-201.07390625-0.24Q-206.00390625-0.88 -206.05390625-3.91L-206.05390625-3.91Q-206.05390625-6.15 -201.97390625-6.3Q-197.90390625-6.45 -197.90390625-8.4L-197.90390625-8.4L-197.90390625-60.25Q-197.90390625-61.43 -199.92390625-61.91ZM-153.76390625-47.8L-153.76390625-47.8Q-153.76390625-62.74 -176.71390625-62.74L-176.71390625-62.74L-178.80390625-62.74Q-183.35390625-62.74 -184.57390625-61.87L-184.57390625-61.87Q-185.88390625-60.94 -186.08390624999998-60.4Q-186.28390625-59.86 -186.52390625-59.18L-186.52390625-59.18Q-186.86390625-58.11 -186.86390625-55.81L-186.86390625-55.81L-186.86390625-34.81Q-185.10390625-34.67 -181.03390625-34.67Q-176.95390625-34.67 -173.65390625-34.89Q-170.36390625-35.11 -167.16390625-35.64Q-163.96390625-36.18 -161.62390625-37.16Q-159.27390625-38.13 -157.42390625000002-39.55L-157.42390625000002-39.55Q-153.76390625-42.38 -153.76390625-47.8ZM-100.83328125 0L-100.83328125 0Q-111.52328125 0 -111.52328125-4.39L-111.52328125-4.39Q-111.52328125-6.1 -108.20328125-6.54L-108.20328125-6.54Q-106.64328125-6.79 -106.10328125-7.03L-106.10328125-7.03Q-104.20328125-7.81 -104.20328125-10.5L-104.20328125-10.5L-104.20328125-58.11Q-104.20328125-61.62 -107.86328125-62.11L-107.86328125-62.11Q-108.54328125-62.21 -109.13328125-62.28Q-109.71328125-62.35 -110.10328125-62.43Q-110.49328125-62.5 -110.64328125-62.6Q-110.79328125-62.7 -111.01328125-62.87Q-111.23328125-63.04 -111.32328125-63.28L-111.32328125-63.28Q-111.52328125-63.92 -111.52328125-64.58Q-111.52328125-65.23 -111.30328125-65.82Q-111.08328125-66.41 -110.52328125-66.85Q-109.96328125-67.29 -109.44328125-67.58Q-108.93328125-67.87 -107.88328125-68.04Q-106.83328125-68.21 -106.12328125-68.33Q-105.42328125-68.46 -103.95328125-68.51Q-102.49328125-68.55 -101.66328125-68.55L-101.66328125-68.55Q-100.09328125-68.55 -98.53328125-68.55Q-96.97328125-68.55 -95.97328125-68.53Q-94.97328125-68.51 -93.55328125-68.41Q-92.14328125-68.31 -91.21328125-68.16Q-90.28328125-68.02 -89.23328125-67.68Q-88.18328125-67.33 -87.59328125-66.89L-87.59328125-66.89Q-86.18328125-65.87 -86.18328125-64.48Q-86.18328125-63.09 -87.13328125-62.67Q-88.08328125-62.26 -89.60328125-62.08Q-91.11328125-61.91 -91.65328124999999-61.67L-91.65328124999999-61.67Q-93.55328125-60.79 -93.55328125-58.11L-93.55328125-58.11L-93.55328125-10.5Q-93.55328125-8.35 -92.40328124999999-7.45Q-91.26328125-6.54 -89.62328125-6.37Q-87.98328125-6.2 -87.50328125-6.05L-87.50328125-6.05Q-86.18328125-5.76 -86.18328125-4.47Q-86.18328125-3.17 -86.62328125-2.44Q-87.06328125-1.71 -88.08328125-1.25Q-89.11328125-0.78 -90.04328125-0.51Q-90.96328125-0.24 -92.72328125-0.15L-92.72328125-0.15Q-95.36328125 0 -100.83328125 0ZM 8.787031249999998-18.8Q 10.447031249999995-18.8  11.547031250000003-17.63Q 12.647031249999998-16.46  12.647031249999998-14.16Q 12.647031249999998-11.87  11.527031249999993-8.47Q 10.397031249999998-5.08  8.277031249999993-2.54Q 6.157031250000003 0  3.70703125 0L 3.70703125 0L-48.87296875 0.05Q-52.58296875 0.05 -52.58296875-2.44L-52.58296875-2.44Q-52.58296875-7.42 -20.75296875-42.97L-20.75296875-42.97Q-8.54296875-56.64 -3.9529687499999966-61.96L-3.9529687499999966-61.96Q-8.642968750000001-62.74 -17.672968750000003-62.74L-17.672968750000003-62.74L-41.89296875-62.65L-42.14296875-60.5Q-42.82296875-54.74 -45.75296875-51.07L-45.75296875-51.07Q-47.41296875-49.02 -49.24296875-49.02Q-51.07296875-49.02 -52.00296875-50.34Q-52.93296875-51.66 -52.93296875-54.88Q-52.93296875-58.11 -52.05296875-61.01Q-51.17296875-63.92 -49.12296875-65.58L-49.12296875-65.58Q-45.50296875-68.51 -36.76296875-68.51L-36.76296875-68.51L-2.9329687500000006-68.6Q 5.417031250000001-68.6  9.517031250000002-67.87L 9.517031250000002-67.87L 9.477031249999996-67.92Q 10.647031249999998-67.19  10.647031249999998-65.94Q 10.647031249999998-64.7  9.157031250000003-62.33Q 7.667031249999994-59.96  4.88703125-56.35L 4.88703125-56.35Q 1.217031249999998-51.51 -8.00296875-40.5Q-17.232968749999998-29.49 -26.58296875-19.19Q-35.93296875-8.89 -38.23296875-6.88L-38.23296875-6.88Q-35.50296875-5.91 -21.36296875-5.91Q-7.22296875-5.91  0.7770312500000003-6.35L 0.7770312500000003-6.35Q 2.687031249999997-8.64  6.197031250000002-15.63L 6.197031250000002-15.63Q 8.057031249999994-18.8  8.787031249999998-18.8L 8.787031249999998-18.8ZM 105.808515625-18.8Q 107.468515625-18.8  108.568515625-17.63Q 109.668515625-16.46  109.668515625-14.16Q 109.668515625-11.87  108.548515625-8.47Q 107.418515625-5.08  105.298515625-2.54Q 103.178515625 0  100.728515625 0L 100.728515625 0L 48.148515625 0.05Q 44.438515625 0.05  44.438515625-2.44L 44.438515625-2.44Q 44.438515625-7.42  76.26851562499999-42.97L 76.26851562499999-42.97Q 88.478515625-56.64  93.068515625-61.96L 93.068515625-61.96Q 88.378515625-62.74  79.348515625-62.74L 79.348515625-62.74L 55.128515625-62.65L 54.878515625-60.5Q 54.198515625-54.74  51.268515625-51.07L 51.268515625-51.07Q 49.608515625-49.02  47.778515625-49.02Q 45.948515625-49.02  45.018515625-50.34Q 44.088515625-51.66  44.088515625-54.88Q 44.088515625-58.11  44.968515625-61.01Q 45.848515625-63.92  47.898515625-65.58L 47.898515625-65.58Q 51.518515625-68.51  60.258515625-68.51L 60.258515625-68.51L 94.088515625-68.6Q 102.43851562500001-68.6  106.538515625-67.87L 106.538515625-67.87L 106.498515625-67.92Q 107.668515625-67.19  107.668515625-65.94Q 107.668515625-64.7  106.178515625-62.33Q 104.688515625-59.96  101.908515625-56.35L 101.908515625-56.35Q 98.23851562499999-51.51  89.01851562499999-40.5Q 79.788515625-29.49  70.43851562500001-19.19Q 61.088515625-8.89  58.788515625-6.88L 58.788515625-6.88Q 61.518515625-5.91  75.658515625-5.91Q 89.798515625-5.91  97.798515625-6.35L 97.798515625-6.35Q 99.70851562499999-8.64  103.21851562500001-15.63L 103.21851562500001-15.63Q 105.078515625-18.8  105.808515625-18.8L 105.808515625-18.8ZM 209.38-4.35L 209.38-4.35Q 209.38-2.1  206.59-1.05Q 203.81 0  200.49 0L 200.49 0L 199.9 0Q 193.55 0  191.87-0.49Q 190.19-0.98  189.11-1.46L 189.11-1.46Q 186.96-2.54  186.96-4.93L 186.96-4.93Q 186.96-6.01  189.57999999999998-6.15Q 192.19-6.3  192.19-7.81L 192.19-7.81Q 192.19-8.35  191.26-10.16L 191.26-10.16L 191.31-10.16L 185.94-22.95L 157.18-22.95Q 151.95-9.18  151.95-7.96Q 151.95-6.74  152.59-6.54L 152.59-6.54L 152.54-6.59Q 152.88-6.4  154.2-6.05L 154.2-6.05Q 157.47-5.27  157.47-4.35L 157.47-4.35Q 157.47 0  146.48 0L 146.48 0Q 137.35 0 137.35-4.35L 137.35-4.35Q 137.35-5.27  140.65-6.2Q 143.95-7.13  145.31-10.79L 145.31-10.79L 165.09-62.5Q 164.6-63.82  164.6-64.79L 164.6-64.79Q 164.6-68.55  172.27-68.55L 172.27-68.55Q 178.42000000000002-68.55  180.22-63.87L 180.22-63.87L 200.82999999999998-11.13Q 202.59-6.93  206.2-6.35L 206.2-6.35Q 208.5-6.01  208.94-5.59Q 209.38-5.18  209.38-4.35ZM 171.29-62.5L 159.07999999999998-27.64L 183.98-27.64L 171.29-62.5Z"/></svg>